<?xml version="1.0" encoding="UTF-8"?>
<!DOCTYPE svg PUBLIC "-//W3C//DTD SVG 1.1//EN" "http://www.w3.org/Graphics/SVG/1.1/DTD/svg11.dtd">
<svg xmlns="http://www.w3.org/2000/svg" version="1.1" width="245px" height="167px" style="shape-rendering:geometricPrecision; text-rendering:geometricPrecision; image-rendering:optimizeQuality; fill-rule:evenodd; clip-rule:evenodd" xmlns:xlink="http://www.w3.org/1999/xlink">
<g><path style="opacity:0.674" fill="#0b0b0a" d="M 21.5,157.5 C 22.1667,157.167 22.8333,156.833 23.5,156.5C 46.5,156.5 69.5,156.5 92.5,156.5C 122.48,158.108 152.48,158.608 182.5,158C 193.208,156.995 203.875,155.661 214.5,154C 217.47,153.237 219.97,151.737 222,149.5C 224.17,129.224 224.836,108.89 224,88.5C 222.475,69.1948 221.475,49.8615 221,30.5C 219.928,25.6165 218.261,20.9499 216,16.5C 214.2,14.683 212.034,13.5163 209.5,13C 146.483,10.853 83.4828,11.0197 20.5,13.5C 20.6107,12.8826 20.944,12.3826 21.5,12C 50.9439,9.56043 80.4439,8.39377 110,8.5C 144.883,8.64602 179.716,9.47936 214.5,11C 215.931,11.4652 217.097,12.2986 218,13.5C 220.562,18.624 222.562,23.9573 224,29.5C 226.795,65.117 227.795,100.784 227,136.5C 226.727,141.229 226.061,145.896 225,150.5C 222.897,154.934 219.397,157.434 214.5,158C 196.333,161.483 178,162.983 159.5,162.5C 114.184,160.965 68.8505,160.131 23.5,160C 22.6195,159.292 21.9528,158.458 21.5,157.5 Z"/></g>
<g><path style="opacity:1" fill="#957c51" d="M 92.5,156.5 C 95.8333,155.833 99.1667,155.167 102.5,154.5C 128.835,154.667 155.169,154.5 181.5,154C 188.467,152.837 195.467,152.004 202.5,151.5C 214.287,151.378 219.954,145.378 219.5,133.5C 222.289,113.133 222.122,92.8 219,72.5C 218.389,57.1643 217.722,41.8309 217,26.5C 216.215,24.714 215.049,23.214 213.5,22C 202.234,17.7893 190.567,15.9559 178.5,16.5C 147.197,18.1044 115.864,18.9378 84.5,19C 80.1769,22.7886 76.6769,27.2886 74,32.5C 72.0752,40.3766 71.2419,48.3766 71.5,56.5C 72.194,83.4957 72.694,110.496 73,137.5C 72.7182,145.679 76.2182,151.346 83.5,154.5C 63.5,155.167 43.5,155.833 23.5,156.5C 22.8333,156.833 22.1667,157.167 21.5,157.5C 20.0687,156.22 19.4021,154.553 19.5,152.5C 20.1667,151.833 20.8333,151.167 21.5,150.5C 33.3333,151.325 45.3333,151.992 57.5,152.5C 60.5508,152.402 63.5508,152.069 66.5,151.5C 67.8333,151.5 69.1667,151.5 70.5,151.5C 69.1054,136.43 68.1054,121.43 67.5,106.5C 67.6666,79.8313 67.5,53.1646 67,26.5C 63.9423,21.5775 59.4423,19.0775 53.5,19C 42.5181,18.0565 31.5181,17.5565 20.5,17.5C 21.4054,16.0357 21.4054,14.7024 20.5,13.5C 83.4828,11.0197 146.483,10.853 209.5,13C 212.034,13.5163 214.2,14.683 216,16.5C 218.261,20.9499 219.928,25.6165 221,30.5C 221.475,49.8615 222.475,69.1948 224,88.5C 224.836,108.89 224.17,129.224 222,149.5C 219.97,151.737 217.47,153.237 214.5,154C 203.875,155.661 193.208,156.995 182.5,158C 152.48,158.608 122.48,158.108 92.5,156.5 Z"/></g>
<g><path style="opacity:1" fill="#eafcfa" d="M 20.5,18.5 C 32.7102,19.3778 45.0435,20.5444 57.5,22C 61.234,22.7335 63.734,24.9001 65,28.5C 65.4672,62.8351 65.9672,97.1685 66.5,131.5C 67.4467,137.567 67.4467,143.567 66.5,149.5C 51.324,149.171 36.324,149.504 21.5,150.5C 20.8333,151.167 20.1667,151.833 19.5,152.5C 18.8783,151.373 18.045,150.373 17,149.5C 12.348,116.677 9.5147,83.677 8.5,50.5C 8.60841,42.4156 9.44174,34.4156 11,26.5C 12.5284,21.799 15.6951,19.1323 20.5,18.5 Z"/></g>
<g><path style="opacity:1" fill="#e9fbfa" d="M 216.5,66.5 C 216.178,74.7293 216.845,82.7293 218.5,90.5C 218.487,104.176 218.154,117.843 217.5,131.5C 216.778,135.391 215.944,139.391 215,143.5C 213.124,146.366 210.458,148.032 207,148.5C 205.342,146.532 203.675,144.532 202,142.5C 202.522,135.214 200.022,129.214 194.5,124.5C 201.349,115.681 202.182,106.348 197,96.5C 193.263,94.3234 191.263,90.9901 191,86.5C 189.647,85.3147 188.48,83.9814 187.5,82.5C 188.6,78.5575 188.767,74.5575 188,70.5C 184.067,64.5659 178.9,60.0659 172.5,57C 169.953,56.3405 167.453,56.5071 165,57.5C 161.748,55.0414 158.082,53.7081 154,53.5C 149.563,54.1429 145.397,55.4763 141.5,57.5C 142.107,53.0972 140.44,51.7639 136.5,53.5C 135.808,56.1634 134.808,58.6634 133.5,61C 135.103,62.9066 134.77,64.4066 132.5,65.5C 117.531,66.0772 111.698,73.7439 115,88.5C 110.071,94.5184 103.571,97.3517 95.5,97C 92.0731,98.4313 89.2398,100.598 87,103.5C 86.4196,111.276 87.0862,118.943 89,126.5C 92.5828,128.29 96.4161,128.957 100.5,128.5C 102.698,136.029 107.698,140.363 115.5,141.5C 116.833,141.5 118.167,141.5 119.5,141.5C 119.338,143.527 119.505,145.527 120,147.5C 120.71,148.973 121.876,149.64 123.5,149.5C 122.833,150.167 122.167,150.833 121.5,151.5C 108.835,152.127 96.1682,152.294 83.5,152C 78.2862,149.453 75.4528,145.286 75,139.5C 74.5,108.835 74.3334,78.1685 74.5,47.5C 75.4219,43.0051 76.0886,38.3384 76.5,33.5C 78.5307,29.2886 81.1974,25.4552 84.5,22C 122.825,20.5587 161.159,19.8921 199.5,20C 204.539,21.4551 209.373,23.2884 214,25.5C 215.862,39.0948 216.695,52.7615 216.5,66.5 Z"/></g>
<g><path style="opacity:1" fill="#474c4c" d="M 49.5,33.5 C 50.552,33.3505 51.552,33.5172 52.5,34C 49.2021,38.5887 48.2021,38.4221 49.5,33.5 Z"/></g>
<g><path style="opacity:1" fill="#141312" d="M 20.5,17.5 C 31.5181,17.5565 42.5181,18.0565 53.5,19C 59.4423,19.0775 63.9423,21.5775 67,26.5C 67.5,53.1646 67.6666,79.8313 67.5,106.5C 67.8261,115.017 67.4927,123.35 66.5,131.5C 65.9672,97.1685 65.4672,62.8351 65,28.5C 63.734,24.9001 61.234,22.7335 57.5,22C 45.0435,20.5444 32.7102,19.3778 20.5,18.5C 20.5,18.1667 20.5,17.8333 20.5,17.5 Z"/></g>
<g><path style="opacity:1" fill="#3c4040" d="M 53.5,36.5 C 54.2389,36.369 54.9056,36.5357 55.5,37C 54.3333,38.1667 53.1667,39.3333 52,40.5C 51.7003,38.9343 52.2003,37.601 53.5,36.5 Z"/></g>
<g><path style="opacity:1" fill="#f8e27f" d="M 196.5,150.5 C 190.137,150.407 183.804,150.74 177.5,151.5C 178.25,147.225 176.917,143.891 173.5,141.5C 172.89,140.609 172.557,139.609 172.5,138.5C 178.408,143.709 184.241,143.709 190,138.5C 191.301,136.635 191.635,134.635 191,132.5C 188.517,129.177 185.351,126.843 181.5,125.5C 180.329,124.655 178.995,123.989 177.5,123.5C 177.5,122.167 177.5,120.833 177.5,119.5C 179.048,119.179 179.715,118.179 179.5,116.5C 176.737,116.256 174.571,114.923 173,112.5C 172.328,108.779 171.161,105.445 169.5,102.5C 169.5,100.833 169.5,99.1667 169.5,97.5C 170.141,96.5178 170.807,95.5178 171.5,94.5C 171,94.1667 170.5,93.8333 170,93.5C 165.846,97.1914 161.012,98.3581 155.5,97C 154.058,96.6232 153.058,95.7899 152.5,94.5C 153.622,92.7116 153.789,90.7116 153,88.5C 151.062,87.1398 149.396,87.4732 148,89.5C 147.505,91.4727 147.338,93.4727 147.5,95.5C 144.022,95.8158 140.688,95.3158 137.5,94C 137.043,93.586 136.709,93.086 136.5,92.5C 138.279,90.8071 138.779,88.8071 138,86.5C 136.333,85.1667 134.667,85.1667 133,86.5C 132.505,88.4727 132.338,90.4727 132.5,92.5C 121.402,92.9019 116.235,87.5686 117,76.5C 119.266,69.9507 123.766,67.4507 130.5,69C 132.412,70.2002 133.745,71.8669 134.5,74C 135.833,74.6667 137.167,74.6667 138.5,74C 139.642,71.2745 141.142,68.7745 143,66.5C 143.834,57.4002 149.001,53.9002 158.5,56C 160.349,57.093 162.016,58.4263 163.5,60C 173.814,58.7464 181.314,62.913 186,72.5C 186.633,76.7232 186.3,80.7232 185,84.5C 188.776,86.6476 190.61,89.9809 190.5,94.5C 193.868,95.7016 196.034,98.0349 197,101.5C 199.234,110.511 197.067,118.178 190.5,124.5C 193.494,126.662 195.994,129.328 198,132.5C 198.333,136.167 198.667,139.833 199,143.5C 201.455,144.743 202.622,146.743 202.5,149.5C 200.265,149.205 198.265,149.539 196.5,150.5 Z"/></g>
<g><path style="opacity:1" fill="#232220" d="M 219.5,133.5 C 218.71,134.609 218.21,135.942 218,137.5C 217.505,135.527 217.338,133.527 217.5,131.5C 218.154,117.843 218.487,104.176 218.5,90.5C 218.224,82.3194 217.557,74.3194 216.5,66.5C 216.695,52.7615 215.862,39.0948 214,25.5C 209.373,23.2884 204.539,21.4551 199.5,20C 161.159,19.8921 122.825,20.5587 84.5,22C 81.1974,25.4552 78.5307,29.2886 76.5,33.5C 75.7321,34.2625 75.2321,35.2625 75,36.5C 74.5014,40.1516 74.3347,43.8183 74.5,47.5C 74.3334,78.1685 74.5,108.835 75,139.5C 75.4528,145.286 78.2862,149.453 83.5,152C 96.1682,152.294 108.835,152.127 121.5,151.5C 139.466,152.46 157.466,152.793 175.5,152.5C 175.586,148.681 174.919,145.015 173.5,141.5C 176.917,143.891 178.25,147.225 177.5,151.5C 183.804,150.74 190.137,150.407 196.5,150.5C 198.735,150.205 200.735,150.539 202.5,151.5C 195.467,152.004 188.467,152.837 181.5,154C 155.169,154.5 128.835,154.667 102.5,154.5C 96.1667,154.5 89.8333,154.5 83.5,154.5C 76.2182,151.346 72.7182,145.679 73,137.5C 72.694,110.496 72.194,83.4957 71.5,56.5C 71.2419,48.3766 72.0752,40.3766 74,32.5C 76.6769,27.2886 80.1769,22.7886 84.5,19C 115.864,18.9378 147.197,18.1044 178.5,16.5C 190.567,15.9559 202.234,17.7893 213.5,22C 215.049,23.214 216.215,24.714 217,26.5C 217.722,41.8309 218.389,57.1643 219,72.5C 222.122,92.8 222.289,113.133 219.5,133.5 Z"/></g>
<g><path style="opacity:1" fill="#595d5d" d="M 88.5,88.5 C 89.3764,88.3691 90.0431,88.7025 90.5,89.5C 88.4903,92.5623 86.1569,94.5623 83.5,95.5C 85.6049,93.4084 87.2716,91.0751 88.5,88.5 Z"/></g>
<g><path style="opacity:1" fill="#515454" d="M 84.5,87.5 C 85.2389,87.369 85.9056,87.5357 86.5,88C 84.6667,90.5 82.8333,93 81,95.5C 81.3096,92.539 82.4763,89.8723 84.5,87.5 Z"/></g>
<g><path style="opacity:1" fill="#222220" d="M 201.5,77.5 C 204.308,77.9695 206.642,79.3028 208.5,81.5C 206.808,83.3586 205.308,85.3586 204,87.5C 200.201,84.9319 199.367,81.5985 201.5,77.5 Z"/></g>
<g><path style="opacity:1" fill="#cbbe71" d="M 202.5,81.5 C 205.957,81.6672 206.29,82.6672 203.5,84.5C 202.614,83.675 202.281,82.675 202.5,81.5 Z"/></g>
<g><path style="opacity:1" fill="#96a09f" d="M 216.5,66.5 C 217.557,74.3194 218.224,82.3194 218.5,90.5C 216.845,82.7293 216.178,74.7293 216.5,66.5 Z"/></g>
<g><path style="opacity:1" fill="#1d1d1b" d="M 85.5,67.5 C 88.1376,69.1223 90.8043,70.7889 93.5,72.5C 91.4377,74.4034 90.1044,76.7367 89.5,79.5C 87.9095,77.3674 85.9095,75.7007 83.5,74.5C 85.1713,72.4902 85.838,70.1569 85.5,67.5 Z"/></g>
<g><path style="opacity:1" fill="#daca76" d="M 86.5,71.5 C 89.2748,71.8338 89.9415,73.1671 88.5,75.5C 86.8888,74.6798 86.2222,73.3464 86.5,71.5 Z"/></g>
<g><path style="opacity:1" fill="#9aa2a1" d="M 76.5,33.5 C 76.0886,38.3384 75.4219,43.0051 74.5,47.5C 74.3347,43.8183 74.5014,40.1516 75,36.5C 75.2321,35.2625 75.7321,34.2625 76.5,33.5 Z"/></g>
<g><path style="opacity:1" fill="#5b5f5e" d="M 206.5,31.5 C 207.376,31.3691 208.043,31.7025 208.5,32.5C 206.586,36.5779 204.086,40.2445 201,43.5C 202.895,39.6963 204.729,35.6963 206.5,31.5 Z"/></g>
<g><path style="opacity:1" fill="#585b5b" d="M 202.5,27.5 C 203.043,27.56 203.376,27.8933 203.5,28.5C 201.945,32.3865 199.612,35.7198 196.5,38.5C 195.479,37.9984 195.312,37.3317 196,36.5C 198.666,33.8239 200.833,30.8239 202.5,27.5 Z"/></g>
<g><path style="opacity:1" fill="#ebe7d4" d="M 177.5,123.5 C 178.995,123.989 180.329,124.655 181.5,125.5C 180.624,125.369 179.957,125.702 179.5,126.5C 182.596,128.131 185.43,130.131 188,132.5C 188.667,134.167 188.667,135.833 188,137.5C 186.023,138.905 183.857,139.905 181.5,140.5C 178.269,139.273 175.269,137.606 172.5,135.5C 171.438,136.425 171.438,137.425 172.5,138.5C 172.557,139.609 172.89,140.609 173.5,141.5C 174.919,145.015 175.586,148.681 175.5,152.5C 157.466,152.793 139.466,152.46 121.5,151.5C 122.167,150.833 122.833,150.167 123.5,149.5C 121.876,149.64 120.71,148.973 120,147.5C 119.505,145.527 119.338,143.527 119.5,141.5C 118.167,141.5 116.833,141.5 115.5,141.5C 115.631,140.624 115.298,139.957 114.5,139.5C 109.308,138.304 105.642,135.304 103.5,130.5C 105.833,129.833 108.167,129.167 110.5,128.5C 114.182,128.335 117.848,128.501 121.5,129C 124.731,130.466 128.065,131.633 131.5,132.5C 131.988,137.974 133.988,142.807 137.5,147C 150.212,150.014 155.879,145.181 154.5,132.5C 159.815,132.07 164.815,130.57 169.5,128C 170.252,127.329 170.586,126.496 170.5,125.5C 171.222,125.918 171.722,126.584 172,127.5C 173.101,124.488 174.935,123.155 177.5,123.5 Z"/></g>
<g><path style="opacity:1" fill="#242320" d="M 217.5,131.5 C 217.338,133.527 217.505,135.527 218,137.5C 218.21,135.942 218.71,134.609 219.5,133.5C 219.954,145.378 214.287,151.378 202.5,151.5C 200.735,150.539 198.735,150.205 196.5,150.5C 198.265,149.539 200.265,149.205 202.5,149.5C 202.622,146.743 201.455,144.743 199,143.5C 198.667,139.833 198.333,136.167 198,132.5C 195.994,129.328 193.494,126.662 190.5,124.5C 197.067,118.178 199.234,110.511 197,101.5C 196.034,98.0349 193.868,95.7016 190.5,94.5C 190.61,89.9809 188.776,86.6476 185,84.5C 186.3,80.7232 186.633,76.7232 186,72.5C 181.314,62.913 173.814,58.7464 163.5,60C 162.016,58.4263 160.349,57.093 158.5,56C 149.001,53.9002 143.834,57.4002 143,66.5C 141.142,68.7745 139.642,71.2745 138.5,74C 137.167,74.6667 135.833,74.6667 134.5,74C 133.745,71.8669 132.412,70.2002 130.5,69C 123.766,67.4507 119.266,69.9507 117,76.5C 116.235,87.5686 121.402,92.9019 132.5,92.5C 132.338,90.4727 132.505,88.4727 133,86.5C 134.667,85.1667 136.333,85.1667 138,86.5C 138.779,88.8071 138.279,90.8071 136.5,92.5C 136.709,93.086 137.043,93.586 137.5,94C 140.688,95.3158 144.022,95.8158 147.5,95.5C 148.302,94.0484 148.802,92.3817 149,90.5C 149.883,92.693 151.05,94.0264 152.5,94.5C 153.058,95.7899 154.058,96.6232 155.5,97C 161.012,98.3581 165.846,97.1914 170,93.5C 170.5,93.8333 171,94.1667 171.5,94.5C 170.807,95.5178 170.141,96.5178 169.5,97.5C 162.61,100.48 155.943,100.146 149.5,96.5C 144.541,98.1712 139.874,97.6712 135.5,95C 131.5,94.6667 127.5,94.3333 123.5,94C 121.359,92.6924 119.359,91.1924 117.5,89.5C 115.684,90.8149 114.017,92.3149 112.5,94C 119.235,93.6167 124.068,96.4501 127,102.5C 129.623,109.088 129.956,115.755 128,122.5C 126.5,124 125,125.5 123.5,127C 139.378,133.247 155.045,132.747 170.5,125.5C 170.586,126.496 170.252,127.329 169.5,128C 164.815,130.57 159.815,132.07 154.5,132.5C 155.879,145.181 150.212,150.014 137.5,147C 133.988,142.807 131.988,137.974 131.5,132.5C 128.065,131.633 124.731,130.466 121.5,129C 117.848,128.501 114.182,128.335 110.5,128.5C 107.753,128.187 105.086,128.52 102.5,129.5C 102.624,130.107 102.957,130.44 103.5,130.5C 105.642,135.304 109.308,138.304 114.5,139.5C 115.298,139.957 115.631,140.624 115.5,141.5C 107.698,140.363 102.698,136.029 100.5,128.5C 96.4161,128.957 92.5828,128.29 89,126.5C 87.0862,118.943 86.4196,111.276 87,103.5C 89.2398,100.598 92.0731,98.4313 95.5,97C 103.571,97.3517 110.071,94.5184 115,88.5C 111.698,73.7439 117.531,66.0772 132.5,65.5C 134.77,64.4066 135.103,62.9066 133.5,61C 134.808,58.6634 135.808,56.1634 136.5,53.5C 140.44,51.7639 142.107,53.0972 141.5,57.5C 145.397,55.4763 149.563,54.1429 154,53.5C 158.082,53.7081 161.748,55.0414 165,57.5C 167.453,56.5071 169.953,56.3405 172.5,57C 178.9,60.0659 184.067,64.5659 188,70.5C 188.767,74.5575 188.6,78.5575 187.5,82.5C 188.48,83.9814 189.647,85.3147 191,86.5C 191.263,90.9901 193.263,94.3234 197,96.5C 202.182,106.348 201.349,115.681 194.5,124.5C 200.022,129.214 202.522,135.214 202,142.5C 203.675,144.532 205.342,146.532 207,148.5C 210.458,148.032 213.124,146.366 215,143.5C 215.944,139.391 216.778,135.391 217.5,131.5 Z"/></g>
<g><path style="opacity:1" fill="#ababa9" d="M 125.5,108.5 C 127.989,112.881 127.989,117.214 125.5,121.5C 124.044,118.013 123.044,114.347 122.5,110.5C 123.631,109.396 124.465,109.729 125,111.5C 125.483,110.552 125.649,109.552 125.5,108.5 Z"/></g>
<g><path style="opacity:1" fill="#2a2821" d="M 169.5,102.5 C 171.161,105.445 172.328,108.779 173,112.5C 174.571,114.923 176.737,116.256 179.5,116.5C 179.715,118.179 179.048,119.179 177.5,119.5C 171.402,115.632 168.736,109.965 169.5,102.5 Z"/></g>
<g><path style="opacity:1" fill="#454544" d="M 121.5,102.5 C 123.382,103.221 123.715,104.221 122.5,105.5C 121.596,104.791 121.263,103.791 121.5,102.5 Z"/></g>
<g><path style="opacity:1" fill="#f3f3f3" d="M 114.5,100.5 C 115.209,101.404 116.209,101.737 117.5,101.5C 117.281,102.675 117.614,103.675 118.5,104.5C 119.298,104.043 119.631,103.376 119.5,102.5C 120.167,102.5 120.833,102.5 121.5,102.5C 121.263,103.791 121.596,104.791 122.5,105.5C 121.588,109.204 122.588,109.538 125.5,106.5C 125.5,107.167 125.5,107.833 125.5,108.5C 125.649,109.552 125.483,110.552 125,111.5C 124.465,109.729 123.631,109.396 122.5,110.5C 123.044,114.347 124.044,118.013 125.5,121.5C 125.047,122.458 124.381,123.292 123.5,124C 112.862,126.684 102.195,127.017 91.5,125C 90.8742,124.25 90.3742,123.416 90,122.5C 89.1794,115.654 89.346,108.987 90.5,102.5C 91.5896,104.763 92.9229,104.93 94.5,103C 94.1667,102.667 93.8333,102.333 93.5,102C 94.7425,101.689 95.7425,102.189 96.5,103.5C 97.3333,102.5 98.1667,101.5 99,100.5C 99.6739,101.578 100.674,102.245 102,102.5C 106.231,101.94 110.398,101.273 114.5,100.5 Z"/></g>
<g><path style="opacity:1" fill="#545555" d="M 99.5,122.5 C 100.978,122.238 102.311,122.571 103.5,123.5C 102.833,123.833 102.167,124.167 101.5,124.5C 100.287,124.253 99.62,123.586 99.5,122.5 Z"/></g>
<g><path style="opacity:1" fill="#7b7b7b" d="M 107.5,121.5 C 109.288,121.215 110.955,121.548 112.5,122.5C 111.667,122.833 110.833,123.167 110,123.5C 108.624,123.316 107.791,122.649 107.5,121.5 Z"/></g>
<g><path style="opacity:1" fill="#5a5a5a" d="M 104.5,121.5 C 106.337,121.639 106.67,122.306 105.5,123.5C 104.702,123.043 104.369,122.376 104.5,121.5 Z"/></g>
<g><path style="opacity:1" fill="#6f6f6f" d="M 121.5,120.5 C 124.083,121.092 124.083,121.758 121.5,122.5C 119.44,123.528 117.44,123.528 115.5,122.5C 117.631,121.831 119.631,121.165 121.5,120.5 Z"/></g>
<g><path style="opacity:1" fill="#9e9e9e" d="M 92.5,115.5 C 94.0481,115.821 94.7148,116.821 94.5,118.5C 96.9491,117.943 99.2825,117.943 101.5,118.5C 99.1615,120.659 96.8281,121.993 94.5,122.5C 93.0562,120.392 92.3896,118.059 92.5,115.5 Z"/></g>
<g><path style="opacity:1" fill="#7c7c7c" d="M 117.5,115.5 C 119.484,115.383 121.15,116.05 122.5,117.5C 120.069,118.786 118.403,118.119 117.5,115.5 Z"/></g>
<g><path style="opacity:1" fill="#8c8c8c" d="M 103.5,112.5 C 104.675,112.281 105.675,112.614 106.5,113.5C 103.355,117.66 102.355,117.326 103.5,112.5 Z"/></g>
<g><path style="opacity:1" fill="#aeaeae" d="M 111.5,112.5 C 113.117,113.038 114.784,113.371 116.5,113.5C 116.719,114.675 116.386,115.675 115.5,116.5C 114.264,115.754 112.93,115.421 111.5,115.5C 111.5,114.5 111.5,113.5 111.5,112.5 Z"/></g>
<g><path style="opacity:1" fill="#262626" d="M 107.5,110.5 C 109.337,110.639 109.67,111.306 108.5,112.5C 107.702,112.043 107.369,111.376 107.5,110.5 Z"/></g>
<g><path style="opacity:1" fill="#7c7c7c" d="M 91.5,105.5 C 93.162,107.912 94.162,110.746 94.5,114C 94.1667,114.167 93.8333,114.333 93.5,114.5C 91.8713,111.734 91.2046,108.734 91.5,105.5 Z"/></g>
<g><path style="opacity:1" fill="#9b9b9b" d="M 94.5,104.5 C 98.3633,105.907 102.03,107.74 105.5,110C 100.662,110.341 96.9953,108.508 94.5,104.5 Z"/></g>
<g><path style="opacity:1" fill="#c8c8c8" d="M 125.5,106.5 C 122.588,109.538 121.588,109.204 122.5,105.5C 123.715,104.221 123.382,103.221 121.5,102.5C 120.833,99.8333 120.167,99.8333 119.5,102.5C 119.631,103.376 119.298,104.043 118.5,104.5C 117.614,103.675 117.281,102.675 117.5,101.5C 116.209,101.737 115.209,101.404 114.5,100.5C 110.398,101.273 106.231,101.94 102,102.5C 100.674,102.245 99.6739,101.578 99,100.5C 98.1667,101.5 97.3333,102.5 96.5,103.5C 95.7425,102.189 94.7425,101.689 93.5,102C 93.8333,102.333 94.1667,102.667 94.5,103C 92.9229,104.93 91.5896,104.763 90.5,102.5C 91.7489,100.864 93.4156,99.6972 95.5,99C 103.458,97.6103 111.458,97.2769 119.5,98C 123.276,99.605 125.276,102.438 125.5,106.5 Z"/></g>
<g><path style="opacity:1" fill="#282827" d="M 121.5,102.5 C 120.833,102.5 120.167,102.5 119.5,102.5C 120.167,99.8333 120.833,99.8333 121.5,102.5 Z"/></g>
<g><path style="opacity:1" fill="#5f5f5f" d="M 114.5,100.5 C 114.62,99.4138 115.287,98.7472 116.5,98.5C 117.167,98.8333 117.833,99.1667 118.5,99.5C 117.311,100.429 115.978,100.762 114.5,100.5 Z"/></g>
<g><path style="opacity:1" fill="#f7f3de" d="M 169.5,97.5 C 169.5,99.1667 169.5,100.833 169.5,102.5C 168.736,109.965 171.402,115.632 177.5,119.5C 177.5,120.833 177.5,122.167 177.5,123.5C 174.935,123.155 173.101,124.488 172,127.5C 171.722,126.584 171.222,125.918 170.5,125.5C 155.045,132.747 139.378,133.247 123.5,127C 125,125.5 126.5,124 128,122.5C 129.956,115.755 129.623,109.088 127,102.5C 124.068,96.4501 119.235,93.6167 112.5,94C 114.017,92.3149 115.684,90.8149 117.5,89.5C 119.359,91.1924 121.359,92.6924 123.5,94C 127.5,94.3333 131.5,94.6667 135.5,95C 139.874,97.6712 144.541,98.1712 149.5,96.5C 155.943,100.146 162.61,100.48 169.5,97.5 Z"/></g>
<g><path style="opacity:1" fill="#231c19" d="M 136.5,118.5 C 138.924,118.192 141.257,118.526 143.5,119.5C 140.477,126.282 138.144,125.949 136.5,118.5 Z"/></g>
<g><path style="opacity:1" fill="#3e2c25" d="M 138.5,110.5 C 142.138,109.737 143.638,111.07 143,114.5C 138.777,115.989 137.277,114.655 138.5,110.5 Z"/></g>
<g><path style="opacity:1" fill="#33322f" d="M 144.5,108.5 C 146.337,108.639 146.67,109.306 145.5,110.5C 144.702,110.043 144.369,109.376 144.5,108.5 Z"/></g>
<g><path style="opacity:1" fill="#585650" d="M 135.5,106.5 C 137.465,106.948 137.798,107.948 136.5,109.5C 135.614,108.675 135.281,107.675 135.5,106.5 Z"/></g>
<g><path style="opacity:1" fill="#9e925b" d="M 134.5,87.5 C 136.465,87.9483 136.798,88.9483 135.5,90.5C 134.614,89.675 134.281,88.675 134.5,87.5 Z"/></g>
<g><path style="opacity:1" fill="#393526" d="M 152.5,94.5 C 151.05,94.0264 149.883,92.693 149,90.5C 148.802,92.3817 148.302,94.0484 147.5,95.5C 147.338,93.4727 147.505,91.4727 148,89.5C 149.396,87.4732 151.062,87.1398 153,88.5C 153.789,90.7116 153.622,92.7116 152.5,94.5 Z"/></g>
<g><path style="opacity:1" fill="#1f1d18" d="M 162.5,68.5 C 163.833,68.5 165.167,68.5 166.5,68.5C 166.957,72.5839 166.29,76.4172 164.5,80C 157.433,83.2697 154.933,81.103 157,73.5C 158.356,72.6198 159.856,72.2865 161.5,72.5C 161.433,71.0413 161.766,69.7079 162.5,68.5 Z"/></g>
<g><path style="opacity:1" fill="#8c6f39" d="M 162.5,70.5 C 164.97,73.0616 164.97,75.8949 162.5,79C 161.167,79.6667 159.833,79.6667 158.5,79C 162.051,77.3229 163.384,74.4896 162.5,70.5 Z"/></g>
<g><path style="opacity:1" fill="#aa833e" d="M 137.5,54.5 C 138.836,56.5323 140.503,58.3657 142.5,60C 139.734,60.6912 139.067,62.1912 140.5,64.5C 139.758,65.2868 138.925,65.9535 138,66.5C 137.808,68.5767 137.308,70.5767 136.5,72.5C 135.247,69.3646 135.58,66.3646 137.5,63.5C 137.081,62.3279 136.415,61.3279 135.5,60.5C 137.104,58.8211 137.771,56.8211 137.5,54.5 Z"/></g>
<g><path style="opacity:1" fill="#8d8a7f" d="M 110.5,128.5 C 108.167,129.167 105.833,129.833 103.5,130.5C 102.957,130.44 102.624,130.107 102.5,129.5C 105.086,128.52 107.753,128.187 110.5,128.5 Z"/></g>
<g><path style="opacity:1" fill="#2c2821" d="M 67.5,106.5 C 68.1054,121.43 69.1054,136.43 70.5,151.5C 69.1667,151.5 67.8333,151.5 66.5,151.5C 67.209,150.596 68.209,150.263 69.5,150.5C 69.6641,147.813 69.4974,145.146 69,142.5C 69.0302,145.361 68.1969,147.695 66.5,149.5C 67.4467,143.567 67.4467,137.567 66.5,131.5C 67.4927,123.35 67.8261,115.017 67.5,106.5 Z"/></g>
<g><path style="opacity:1" fill="#f06138" d="M 135.5,133.5 C 140.833,133.5 146.167,133.5 151.5,133.5C 152.792,144.115 148.292,147.782 138,144.5C 135.925,141.166 135.091,137.499 135.5,133.5 Z"/></g>
<g><path style="opacity:1" fill="#2e1c18" d="M 140.5,136.5 C 142.604,136.201 144.604,136.534 146.5,137.5C 145.5,137.833 144.5,138.167 143.5,138.5C 141.97,138.36 140.97,137.693 140.5,136.5 Z"/></g>
<g><path style="opacity:1" fill="#1e1c18" d="M 181.5,125.5 C 185.351,126.843 188.517,129.177 191,132.5C 191.635,134.635 191.301,136.635 190,138.5C 184.241,143.709 178.408,143.709 172.5,138.5C 171.438,137.425 171.438,136.425 172.5,135.5C 175.269,137.606 178.269,139.273 181.5,140.5C 183.857,139.905 186.023,138.905 188,137.5C 188.667,135.833 188.667,134.167 188,132.5C 185.43,130.131 182.596,128.131 179.5,126.5C 179.957,125.702 180.624,125.369 181.5,125.5 Z"/></g>
<g><path style="opacity:1" fill="#39231d" d="M 141.5,140.5 C 143.288,140.215 144.955,140.548 146.5,141.5C 145.667,141.833 144.833,142.167 144,142.5C 142.624,142.316 141.791,141.649 141.5,140.5 Z"/></g>
<g><path style="opacity:1" fill="#303130" d="M 119.5,141.5 C 120.5,141.5 121.5,141.5 122.5,141.5C 122.401,144.237 122.735,146.904 123.5,149.5C 122.735,146.904 122.401,144.237 122.5,141.5C 121.5,141.5 120.5,141.5 119.5,141.5 Z"/></g>
<g><path style="opacity:1" fill="#1a1b1a" d="M 66.5,151.5 C 63.5508,152.069 60.5508,152.402 57.5,152.5C 45.3333,151.992 33.3333,151.325 21.5,150.5C 36.324,149.504 51.324,149.171 66.5,149.5C 68.1969,147.695 69.0302,145.361 69,142.5C 69.4974,145.146 69.6641,147.813 69.5,150.5C 68.209,150.263 67.209,150.596 66.5,151.5 Z"/></g>
<g><path style="opacity:1" fill="#675941" d="M 83.5,154.5 C 89.8333,154.5 96.1667,154.5 102.5,154.5C 99.1667,155.167 95.8333,155.833 92.5,156.5C 69.5,156.5 46.5,156.5 23.5,156.5C 43.5,155.833 63.5,155.167 83.5,154.5 Z"/></g>
</svg>
